<svg width="49" height="48" viewBox="0 0 49 48" fill="none" xmlns="http://www.w3.org/2000/svg">
<path d="M47.1869 17.8152V38.4311C47.1869 38.9779 46.9697 39.5022 46.5831 39.8889C46.1964 40.2755 45.6721 40.4927 45.1253 40.4927H12.14C11.0474 40.4894 10.0006 40.054 9.22804 39.2814C8.4555 38.5089 8.02005 37.462 8.01678 36.3695H43.0637V13.6921C44.1562 13.6953 45.2031 14.1308 45.9756 14.9033C46.7482 15.6759 47.1836 16.7227 47.1869 17.8152ZM38.9406 11.6305V28.1232C38.9373 29.2157 38.5018 30.2625 37.7293 31.0351C36.9568 31.8076 35.9099 32.2431 34.8174 32.2463H5.9552C4.86267 32.2431 3.81582 31.8076 3.04328 31.0351C2.27075 30.2625 1.83529 29.2157 1.83203 28.1232V11.6305C1.83529 10.538 2.27075 9.49112 3.04328 8.71858C3.81582 7.94604 4.86267 7.51059 5.9552 7.50732H34.8174C35.9099 7.51059 36.9568 7.94604 37.7293 8.71858C38.5018 9.49112 38.9373 10.538 38.9406 11.6305ZM11.1092 28.1232C11.1092 26.7563 10.5662 25.4453 9.5996 24.4788C8.63305 23.5122 7.32212 22.9692 5.9552 22.9692V28.1232H11.1092ZM11.1092 11.6305H5.9552V16.7845C7.32212 16.7845 8.63305 16.2414 9.5996 15.2749C10.5662 14.3083 11.1092 12.9974 11.1092 11.6305ZM24.5095 19.8768C24.5095 19.0613 24.2676 18.2642 23.8146 17.5861C23.3615 16.9081 22.7176 16.3796 21.9642 16.0675C21.2107 15.7554 20.3817 15.6738 19.5819 15.8329C18.7821 15.992 18.0474 16.3847 17.4708 16.9613C16.8941 17.5379 16.5014 18.2726 16.3423 19.0724C16.1833 19.8723 16.2649 20.7013 16.577 21.4547C16.8891 22.2081 17.4175 22.8521 18.0956 23.3051C18.7736 23.7582 19.5708 24 20.3863 24C21.4798 24 22.5286 23.5656 23.3018 22.7924C24.0751 22.0191 24.5095 20.9704 24.5095 19.8768ZM34.8174 22.9692C33.4505 22.9692 32.1395 23.5122 31.173 24.4788C30.2064 25.4453 29.6634 26.7563 29.6634 28.1232H34.8174V22.9692ZM34.8174 11.6305H29.6634C29.6634 12.9974 30.2064 14.3083 31.173 15.2749C32.1395 16.2414 33.4505 16.7845 34.8174 16.7845V11.6305Z" fill="black"/>
</svg>
