<svg width="46" height="46" viewBox="0 0 46 46" fill="none" xmlns="http://www.w3.org/2000/svg">
<path fill-rule="evenodd" clip-rule="evenodd" d="M15.9998 3C15.9998 1.34315 17.343 0 18.9998 0H42.9998C44.6567 0 45.9998 1.34315 45.9998 3V5H15.9998V3ZM15.9998 8H45.9998V16C45.9998 17.6569 44.6567 19 42.9998 19H18.9998C17.343 19 15.9998 17.6569 15.9998 16V8ZM20.4998 13C19.6714 13 18.9998 13.6716 18.9998 14.5C18.9998 15.3284 19.6714 16 20.4998 16H29.4998C30.3283 16 30.9998 15.3284 30.9998 14.5C30.9998 13.6716 30.3283 13 29.4998 13H20.4998Z" fill="black"/>
<path fill-rule="evenodd" clip-rule="evenodd" d="M13.0001 10.0002H6.00007C2.68636 10.0002 7.24792e-05 12.6865 7.24792e-05 16.0002V40.0002C7.24792e-05 43.314 2.68637 46.0002 6.00007 46.0002H30.0001C33.3138 46.0002 36.0001 43.314 36.0001 40.0002V22.0002H29.0001V23.0002C29.0001 24.1048 28.1046 25.0002 27.0001 25.0002H9.00007C7.8955 25.0002 7.00007 24.1048 7.00007 23.0002V19.0002C7.00007 17.8957 7.8955 17.0002 9.00007 17.0002H13.0001V10.0002ZM13.0001 30.5002C13.0001 31.881 11.8808 33.0002 10.5001 33.0002C9.11936 33.0002 8.00007 31.881 8.00007 30.5002C8.00007 29.1195 9.11936 28.0002 10.5001 28.0002C11.8808 28.0002 13.0001 29.1195 13.0001 30.5002ZM18.0001 33.0503C19.3808 33.0503 20.5001 31.931 20.5001 30.5503C20.5001 29.1696 19.3808 28.0503 18.0001 28.0503C16.6194 28.0503 15.5001 29.1696 15.5001 30.5503C15.5001 31.931 16.6194 33.0503 18.0001 33.0503ZM28.0001 30.5002C28.0001 31.881 26.8808 33.0002 25.5001 33.0002C24.1194 33.0002 23.0001 31.881 23.0001 30.5002C23.0001 29.1195 24.1194 28.0002 25.5001 28.0002C26.8808 28.0002 28.0001 29.1195 28.0001 30.5002ZM10.5001 41.0002C11.8808 41.0002 13.0001 39.881 13.0001 38.5002C13.0001 37.1195 11.8808 36.0002 10.5001 36.0002C9.11936 36.0002 8.00007 37.1195 8.00007 38.5002C8.00007 39.881 9.11936 41.0002 10.5001 41.0002ZM20.5001 38.5503C20.5001 39.931 19.3808 41.0503 18.0001 41.0503C16.6194 41.0503 15.5001 39.931 15.5001 38.5503C15.5001 37.1696 16.6194 36.0503 18.0001 36.0503C19.3808 36.0503 20.5001 37.1696 20.5001 38.5503ZM25.5001 41.0002C26.8808 41.0002 28.0001 39.881 28.0001 38.5002C28.0001 37.1195 26.8808 36.0002 25.5001 36.0002C24.1194 36.0002 23.0001 37.1195 23.0001 38.5002C23.0001 39.881 24.1194 41.0002 25.5001 41.0002Z" fill="black"/>
</svg>
