<svg width="49" height="49" viewBox="0 0 49 49" fill="none" xmlns="http://www.w3.org/2000/svg">
<path d="M42.6484 3.70728H10.6484C9.0586 3.71202 7.53523 4.34569 6.41104 5.46988C5.28685 6.59407 4.65319 8.11744 4.64844 9.70728V26.2167C6.9161 24.6349 9.67394 23.7073 12.6484 23.7073C20.3804 23.7073 26.6484 29.9753 26.6484 37.7073C26.6484 38.3863 26.6001 39.0541 26.5067 39.7073H42.6484C43.7083 39.7041 44.7239 39.2817 45.4734 38.5322C46.2228 37.7827 46.6453 36.7672 46.6484 35.7073V27.7073H34.6484C33.5885 27.7041 32.573 27.2817 31.8235 26.5322C31.074 25.7827 30.6516 24.7672 30.6484 23.7073V19.7073C30.6516 18.6474 31.074 17.6318 31.8235 16.8823C32.573 16.1329 33.5885 15.7104 34.6484 15.7073H46.6484V7.70728C46.6453 6.64738 46.2228 5.63181 45.4734 4.88235C44.7239 4.13288 43.7083 3.71044 42.6484 3.70728Z" fill="black"/>
<path d="M39.6484 21.7073C39.6484 22.3006 39.4725 22.8806 39.1428 23.374C38.8132 23.8673 38.3447 24.2519 37.7965 24.4789C37.2483 24.706 36.6451 24.7654 36.0632 24.6496C35.4812 24.5339 34.9467 24.2482 34.5271 23.8286C34.1076 23.409 33.8218 22.8745 33.7061 22.2925C33.5903 21.7106 33.6497 21.1074 33.8768 20.5592C34.1039 20.011 34.4884 19.5425 34.9817 19.2129C35.4751 18.8832 36.0551 18.7073 36.6484 18.7073C37.4441 18.7073 38.2071 19.0233 38.7698 19.586C39.3324 20.1486 39.6484 20.9116 39.6484 21.7073Z" fill="black"/>
<path d="M10.6484 45.7073C10.6482 45.1762 10.8565 44.6663 11.2284 44.2873L15.8284 39.7073H4.64844C4.118 39.7073 3.60929 39.4966 3.23422 39.1215C2.85915 38.7464 2.64844 38.2377 2.64844 37.7073C2.64844 37.1768 2.85915 36.6681 3.23422 36.2931C3.6093 35.918 4.118 35.7073 4.64844 35.7073H15.8284L11.2284 31.1273C10.8565 30.7483 10.6482 30.2383 10.6484 29.7073C10.6484 29.1768 10.8592 28.6681 11.2342 28.2931C11.6093 27.918 12.118 27.7073 12.6484 27.7073C13.1795 27.707 13.6894 27.9153 14.0684 28.2873L22.0684 36.2873C22.4403 36.6664 22.6485 37.1762 22.6485 37.7073C22.6485 38.2383 22.4403 38.7481 22.0684 39.1273L14.0684 47.1273C13.6894 47.4992 13.1795 47.7075 12.6484 47.7073C12.118 47.7073 11.6093 47.4966 11.2342 47.1215C10.8592 46.7464 10.6484 46.2377 10.6484 45.7073Z" fill="black"/>
</svg>
